# Blender 4.0.2
# www.blender.org
mtllib Prueba3.mtl
o Cube.001
v 0.907030 0.031731 0.085151
v 0.907030 -0.013164 0.128633
v 0.907030 0.602188 0.674144
v 0.907030 0.557293 0.717626
v 0.096378 0.031731 0.085151
v 0.096378 -0.013164 0.128633
v 0.096378 0.602188 0.674144
v 0.096378 0.557293 0.717626
v 0.907030 0.031250 0.085995
v 0.907030 -0.031250 0.085995
v 0.907030 0.031250 0.905955
v 0.907030 -0.031250 0.905955
v 0.096378 0.031250 0.085995
v 0.096378 -0.031250 0.085995
v 0.096378 0.031250 0.905955
v 0.096378 -0.031250 0.905955
v 0.907030 0.031731 0.085151
v 0.907030 -0.013164 0.128633
v 0.907030 0.557293 0.717626
v 0.907030 0.031731 0.085151
v 0.907030 -0.013164 0.128633
v 0.907030 0.557293 0.717626
vn -0.0000 0.7183 -0.6957
vn -0.0000 0.6957 0.7183
vn -1.0000 -0.0000 -0.0000
vn -0.0000 -0.7183 0.6957
vn 1.0000 -0.0000 -0.0000
vn -0.0000 -0.6957 -0.7183
vn -0.0000 1.0000 -0.0000
vn -0.0000 -0.0000 1.0000
vn -0.0000 -1.0000 -0.0000
vn -0.0000 -0.0000 -1.0000
vt 0.000000 1.000000
vt 1.000000 0.000000
vt 1.000000 1.000000
vt 0.000000 0.000000
vt 0.994792 1.000651
vt 0.006510 0.500651
vt 0.006510 1.002604
vt 0.993490 1.001302
vt 0.997396 0.503255
vt 0.001302 0.505208
s 0
usemtl Material
f 5/1/1 3/2/1 17/3/1
f 3/4/2 8/3/2 19/1/2
f 7/4/3 6/3/3 8/1/3
f 18/5/4 8/6/4 6/7/4
f 1/4/5 4/3/5 2/1/5
f 5/4/6 18/3/6 6/1/6
f 13/1/7 11/2/7 9/3/7
f 11/4/8 16/3/8 12/1/8
f 15/4/3 14/3/3 16/1/3
f 10/3/9 16/4/9 14/1/9
f 10/1/5 11/2/5 12/3/5
f 13/4/10 10/3/10 14/1/10
f 17/4/5 3/2/5 19/3/5
f 5/1/1 7/4/1 3/2/1
f 3/4/2 7/2/2 8/3/2
f 7/4/3 5/2/3 6/3/3
f 18/8/4 19/9/4 8/10/4
f 5/4/6 17/2/6 18/3/6
f 13/1/7 15/4/7 11/2/7
f 11/4/8 15/2/8 16/3/8
f 15/4/3 13/2/3 14/3/3
f 10/3/9 12/2/9 16/4/9
f 10/1/5 9/4/5 11/2/5
f 13/4/10 9/2/10 10/3/10
f 20/4/1 21/4/1 18/4/1 17/4/1
f 21/1/1 22/3/1 19/3/1 18/1/1
f 22/3/1 20/4/1 17/4/1 19/3/1
f 1/4/1 2/1/1 21/1/1 20/4/1
f 2/1/1 4/3/1 22/3/1 21/1/1
f 4/3/1 1/4/1 20/4/1 22/3/1
